<mxfile host="app.diagrams.net" modified="2024-03-27T13:58:18.834Z" agent="Mozilla/5.0 (X11; Linux x86_64) AppleWebKit/537.36 (KHTML, like Gecko) Chrome/121.0.0.0 Safari/537.36 Edg/121.0.0.0" etag="oXAI7TuYnB3V8vnvTwsj" version="24.2.0" type="github">
  <diagram id="R2lEEEUBdFMjLlhIrx00" name="Page-1">
    <mxGraphModel dx="1631" dy="2040" grid="1" gridSize="10" guides="1" tooltips="1" connect="1" arrows="1" fold="1" page="1" pageScale="1" pageWidth="850" pageHeight="1100" math="0" shadow="0" extFonts="Permanent Marker^https://fonts.googleapis.com/css?family=Permanent+Marker">
      <root>
        <mxCell id="0" />
        <mxCell id="1" parent="0" />
        <mxCell id="yVCoZ4X0CeeAgaEIHaB0-79" style="edgeStyle=orthogonalEdgeStyle;rounded=0;orthogonalLoop=1;jettySize=auto;html=1;entryX=0.5;entryY=1;entryDx=0;entryDy=0;" edge="1" parent="1" source="yVCoZ4X0CeeAgaEIHaB0-1" target="yVCoZ4X0CeeAgaEIHaB0-77">
          <mxGeometry relative="1" as="geometry" />
        </mxCell>
        <mxCell id="yVCoZ4X0CeeAgaEIHaB0-96" style="edgeStyle=orthogonalEdgeStyle;rounded=0;orthogonalLoop=1;jettySize=auto;html=1;" edge="1" parent="1" source="yVCoZ4X0CeeAgaEIHaB0-1" target="yVCoZ4X0CeeAgaEIHaB0-94">
          <mxGeometry relative="1" as="geometry" />
        </mxCell>
        <mxCell id="yVCoZ4X0CeeAgaEIHaB0-1" value="&lt;span style=&quot;font-size: 18px;&quot;&gt;کارمند&lt;/span&gt;" style="rounded=1;whiteSpace=wrap;html=1;" vertex="1" parent="1">
          <mxGeometry x="613" y="-580" width="120" height="60" as="geometry" />
        </mxCell>
        <mxCell id="yVCoZ4X0CeeAgaEIHaB0-2" style="edgeStyle=orthogonalEdgeStyle;rounded=0;orthogonalLoop=1;jettySize=auto;html=1;entryX=1;entryY=0.5;entryDx=0;entryDy=0;" edge="1" parent="1" source="yVCoZ4X0CeeAgaEIHaB0-3" target="yVCoZ4X0CeeAgaEIHaB0-1">
          <mxGeometry relative="1" as="geometry" />
        </mxCell>
        <mxCell id="yVCoZ4X0CeeAgaEIHaB0-3" value="نام" style="ellipse;whiteSpace=wrap;html=1;aspect=fixed;" vertex="1" parent="1">
          <mxGeometry x="783" y="-575" width="50" height="50" as="geometry" />
        </mxCell>
        <mxCell id="yVCoZ4X0CeeAgaEIHaB0-76" style="edgeStyle=orthogonalEdgeStyle;rounded=0;orthogonalLoop=1;jettySize=auto;html=1;" edge="1" parent="1" source="yVCoZ4X0CeeAgaEIHaB0-5" target="yVCoZ4X0CeeAgaEIHaB0-1">
          <mxGeometry relative="1" as="geometry" />
        </mxCell>
        <mxCell id="yVCoZ4X0CeeAgaEIHaB0-5" value="شماره&amp;nbsp;&lt;div&gt;شناسنامه&lt;/div&gt;" style="ellipse;whiteSpace=wrap;html=1;aspect=fixed;" vertex="1" parent="1">
          <mxGeometry x="630" y="-490" width="65" height="65" as="geometry" />
        </mxCell>
        <mxCell id="yVCoZ4X0CeeAgaEIHaB0-75" style="edgeStyle=orthogonalEdgeStyle;rounded=0;orthogonalLoop=1;jettySize=auto;html=1;entryX=0.75;entryY=1;entryDx=0;entryDy=0;" edge="1" parent="1" source="yVCoZ4X0CeeAgaEIHaB0-8" target="yVCoZ4X0CeeAgaEIHaB0-1">
          <mxGeometry relative="1" as="geometry" />
        </mxCell>
        <mxCell id="yVCoZ4X0CeeAgaEIHaB0-8" value="شماره&amp;nbsp;&lt;div&gt;همراه&lt;/div&gt;" style="ellipse;whiteSpace=wrap;html=1;aspect=fixed;" vertex="1" parent="1">
          <mxGeometry x="760" y="-510" width="50" height="50" as="geometry" />
        </mxCell>
        <mxCell id="yVCoZ4X0CeeAgaEIHaB0-85" style="edgeStyle=orthogonalEdgeStyle;rounded=0;orthogonalLoop=1;jettySize=auto;html=1;entryX=0.25;entryY=0;entryDx=0;entryDy=0;" edge="1" parent="1" source="yVCoZ4X0CeeAgaEIHaB0-15" target="yVCoZ4X0CeeAgaEIHaB0-20">
          <mxGeometry relative="1" as="geometry" />
        </mxCell>
        <mxCell id="yVCoZ4X0CeeAgaEIHaB0-15" value="شماره&amp;nbsp;&lt;div&gt;شناسنامه&lt;/div&gt;" style="ellipse;whiteSpace=wrap;html=1;aspect=fixed;" vertex="1" parent="1">
          <mxGeometry y="-700" width="65" height="65" as="geometry" />
        </mxCell>
        <mxCell id="yVCoZ4X0CeeAgaEIHaB0-21" style="edgeStyle=orthogonalEdgeStyle;rounded=0;orthogonalLoop=1;jettySize=auto;html=1;entryX=0;entryY=0.5;entryDx=0;entryDy=0;" edge="1" parent="1" source="yVCoZ4X0CeeAgaEIHaB0-16" target="yVCoZ4X0CeeAgaEIHaB0-20">
          <mxGeometry relative="1" as="geometry" />
        </mxCell>
        <mxCell id="yVCoZ4X0CeeAgaEIHaB0-16" value="نام" style="ellipse;whiteSpace=wrap;html=1;aspect=fixed;" vertex="1" parent="1">
          <mxGeometry y="-605" width="50" height="50" as="geometry" />
        </mxCell>
        <mxCell id="yVCoZ4X0CeeAgaEIHaB0-22" style="edgeStyle=orthogonalEdgeStyle;rounded=0;orthogonalLoop=1;jettySize=auto;html=1;entryX=0.25;entryY=1;entryDx=0;entryDy=0;" edge="1" parent="1" source="yVCoZ4X0CeeAgaEIHaB0-17" target="yVCoZ4X0CeeAgaEIHaB0-20">
          <mxGeometry relative="1" as="geometry" />
        </mxCell>
        <mxCell id="yVCoZ4X0CeeAgaEIHaB0-17" value="شماره&amp;nbsp;&lt;div&gt;همراه&lt;/div&gt;" style="ellipse;whiteSpace=wrap;html=1;aspect=fixed;" vertex="1" parent="1">
          <mxGeometry x="40" y="-490" width="50" height="50" as="geometry" />
        </mxCell>
        <mxCell id="yVCoZ4X0CeeAgaEIHaB0-66" value="" style="edgeStyle=orthogonalEdgeStyle;rounded=0;orthogonalLoop=1;jettySize=auto;html=1;" edge="1" parent="1" source="yVCoZ4X0CeeAgaEIHaB0-20" target="yVCoZ4X0CeeAgaEIHaB0-65">
          <mxGeometry relative="1" as="geometry">
            <Array as="points">
              <mxPoint x="220" y="-560" />
            </Array>
          </mxGeometry>
        </mxCell>
        <mxCell id="yVCoZ4X0CeeAgaEIHaB0-88" style="edgeStyle=orthogonalEdgeStyle;rounded=0;orthogonalLoop=1;jettySize=auto;html=1;entryX=0.5;entryY=1;entryDx=0;entryDy=0;" edge="1" parent="1" source="yVCoZ4X0CeeAgaEIHaB0-20" target="yVCoZ4X0CeeAgaEIHaB0-86">
          <mxGeometry relative="1" as="geometry" />
        </mxCell>
        <mxCell id="yVCoZ4X0CeeAgaEIHaB0-20" value="&lt;span style=&quot;font-size: 18px;&quot;&gt;مدیر&lt;/span&gt;" style="rounded=1;whiteSpace=wrap;html=1;" vertex="1" parent="1">
          <mxGeometry x="70" y="-598.75" width="120" height="60" as="geometry" />
        </mxCell>
        <mxCell id="yVCoZ4X0CeeAgaEIHaB0-87" value="" style="edgeStyle=orthogonalEdgeStyle;rounded=0;orthogonalLoop=1;jettySize=auto;html=1;" edge="1" parent="1" source="yVCoZ4X0CeeAgaEIHaB0-23" target="yVCoZ4X0CeeAgaEIHaB0-86">
          <mxGeometry relative="1" as="geometry" />
        </mxCell>
        <mxCell id="yVCoZ4X0CeeAgaEIHaB0-23" value="&lt;span style=&quot;font-size: 18px;&quot;&gt;پروژه&lt;/span&gt;" style="rounded=1;whiteSpace=wrap;html=1;" vertex="1" parent="1">
          <mxGeometry x="90" y="-835" width="120" height="60" as="geometry" />
        </mxCell>
        <mxCell id="yVCoZ4X0CeeAgaEIHaB0-35" style="edgeStyle=orthogonalEdgeStyle;rounded=0;orthogonalLoop=1;jettySize=auto;html=1;entryX=0.75;entryY=0;entryDx=0;entryDy=0;" edge="1" parent="1" source="yVCoZ4X0CeeAgaEIHaB0-25" target="yVCoZ4X0CeeAgaEIHaB0-23">
          <mxGeometry relative="1" as="geometry" />
        </mxCell>
        <mxCell id="yVCoZ4X0CeeAgaEIHaB0-25" value="هزینه&amp;nbsp;&lt;div&gt;تخمینی&lt;/div&gt;" style="ellipse;whiteSpace=wrap;html=1;aspect=fixed;" vertex="1" parent="1">
          <mxGeometry x="220" y="-922.5" width="65" height="65" as="geometry" />
        </mxCell>
        <mxCell id="yVCoZ4X0CeeAgaEIHaB0-26" value="نام" style="ellipse;whiteSpace=wrap;html=1;aspect=fixed;" vertex="1" parent="1">
          <mxGeometry x="40" y="-900" width="50" height="50" as="geometry" />
        </mxCell>
        <mxCell id="yVCoZ4X0CeeAgaEIHaB0-34" style="edgeStyle=orthogonalEdgeStyle;rounded=0;orthogonalLoop=1;jettySize=auto;html=1;entryX=0.25;entryY=0;entryDx=0;entryDy=0;" edge="1" parent="1" source="yVCoZ4X0CeeAgaEIHaB0-27" target="yVCoZ4X0CeeAgaEIHaB0-23">
          <mxGeometry relative="1" as="geometry" />
        </mxCell>
        <mxCell id="yVCoZ4X0CeeAgaEIHaB0-27" value="مدت&lt;div&gt;تخمینی&lt;/div&gt;" style="ellipse;whiteSpace=wrap;html=1;aspect=fixed;" vertex="1" parent="1">
          <mxGeometry x="100" y="-940" width="60" height="60" as="geometry" />
        </mxCell>
        <mxCell id="yVCoZ4X0CeeAgaEIHaB0-29" style="edgeStyle=orthogonalEdgeStyle;rounded=0;orthogonalLoop=1;jettySize=auto;html=1;entryX=0;entryY=0.5;entryDx=0;entryDy=0;" edge="1" source="yVCoZ4X0CeeAgaEIHaB0-26" target="yVCoZ4X0CeeAgaEIHaB0-23" parent="1">
          <mxGeometry relative="1" as="geometry" />
        </mxCell>
        <mxCell id="yVCoZ4X0CeeAgaEIHaB0-33" style="edgeStyle=orthogonalEdgeStyle;rounded=0;orthogonalLoop=1;jettySize=auto;html=1;" edge="1" parent="1" source="yVCoZ4X0CeeAgaEIHaB0-32" target="yVCoZ4X0CeeAgaEIHaB0-23">
          <mxGeometry relative="1" as="geometry" />
        </mxCell>
        <mxCell id="yVCoZ4X0CeeAgaEIHaB0-32" value="تعریف&lt;div&gt;پروژه&lt;/div&gt;" style="ellipse;whiteSpace=wrap;html=1;aspect=fixed;" vertex="1" parent="1">
          <mxGeometry x="280" y="-852.5" width="65" height="65" as="geometry" />
        </mxCell>
        <mxCell id="yVCoZ4X0CeeAgaEIHaB0-46" style="edgeStyle=orthogonalEdgeStyle;rounded=0;orthogonalLoop=1;jettySize=auto;html=1;entryX=0.5;entryY=1;entryDx=0;entryDy=0;" edge="1" parent="1" source="yVCoZ4X0CeeAgaEIHaB0-39" target="yVCoZ4X0CeeAgaEIHaB0-44">
          <mxGeometry relative="1" as="geometry" />
        </mxCell>
        <mxCell id="yVCoZ4X0CeeAgaEIHaB0-39" value="شماره&amp;nbsp;&lt;div&gt;شناسنامه&lt;/div&gt;" style="ellipse;whiteSpace=wrap;html=1;aspect=fixed;" vertex="1" parent="1">
          <mxGeometry x="427" y="-365" width="65" height="65" as="geometry" />
        </mxCell>
        <mxCell id="yVCoZ4X0CeeAgaEIHaB0-41" value="نام" style="ellipse;whiteSpace=wrap;html=1;aspect=fixed;" vertex="1" parent="1">
          <mxGeometry x="500" y="-395" width="50" height="50" as="geometry" />
        </mxCell>
        <mxCell id="yVCoZ4X0CeeAgaEIHaB0-42" style="edgeStyle=orthogonalEdgeStyle;rounded=0;orthogonalLoop=1;jettySize=auto;html=1;entryX=0.25;entryY=1;entryDx=0;entryDy=0;" edge="1" parent="1" source="yVCoZ4X0CeeAgaEIHaB0-43" target="yVCoZ4X0CeeAgaEIHaB0-44">
          <mxGeometry relative="1" as="geometry" />
        </mxCell>
        <mxCell id="yVCoZ4X0CeeAgaEIHaB0-43" value="تعداد اعضا" style="ellipse;whiteSpace=wrap;html=1;aspect=fixed;" vertex="1" parent="1">
          <mxGeometry x="329.5" y="-365" width="70" height="70" as="geometry" />
        </mxCell>
        <mxCell id="yVCoZ4X0CeeAgaEIHaB0-64" style="edgeStyle=orthogonalEdgeStyle;rounded=0;orthogonalLoop=1;jettySize=auto;html=1;" edge="1" parent="1" source="yVCoZ4X0CeeAgaEIHaB0-44" target="yVCoZ4X0CeeAgaEIHaB0-41">
          <mxGeometry relative="1" as="geometry" />
        </mxCell>
        <mxCell id="yVCoZ4X0CeeAgaEIHaB0-68" style="edgeStyle=orthogonalEdgeStyle;rounded=0;orthogonalLoop=1;jettySize=auto;html=1;entryX=1;entryY=0.5;entryDx=0;entryDy=0;" edge="1" parent="1" source="yVCoZ4X0CeeAgaEIHaB0-44" target="yVCoZ4X0CeeAgaEIHaB0-65">
          <mxGeometry relative="1" as="geometry" />
        </mxCell>
        <mxCell id="yVCoZ4X0CeeAgaEIHaB0-95" value="" style="edgeStyle=orthogonalEdgeStyle;rounded=0;orthogonalLoop=1;jettySize=auto;html=1;" edge="1" parent="1" source="yVCoZ4X0CeeAgaEIHaB0-44" target="yVCoZ4X0CeeAgaEIHaB0-94">
          <mxGeometry relative="1" as="geometry" />
        </mxCell>
        <mxCell id="yVCoZ4X0CeeAgaEIHaB0-44" value="&lt;span style=&quot;font-size: 18px;&quot;&gt;تیم&lt;/span&gt;" style="rounded=1;whiteSpace=wrap;html=1;" vertex="1" parent="1">
          <mxGeometry x="364.5" y="-470" width="120" height="60" as="geometry" />
        </mxCell>
        <mxCell id="yVCoZ4X0CeeAgaEIHaB0-74" style="edgeStyle=orthogonalEdgeStyle;rounded=0;orthogonalLoop=1;jettySize=auto;html=1;entryX=1;entryY=0.25;entryDx=0;entryDy=0;" edge="1" parent="1" source="yVCoZ4X0CeeAgaEIHaB0-53" target="yVCoZ4X0CeeAgaEIHaB0-72">
          <mxGeometry relative="1" as="geometry" />
        </mxCell>
        <mxCell id="yVCoZ4X0CeeAgaEIHaB0-53" value="وضعیت&amp;nbsp;&lt;div&gt;پیشروی&lt;/div&gt;" style="ellipse;whiteSpace=wrap;html=1;aspect=fixed;" vertex="1" parent="1">
          <mxGeometry x="788" y="-850" width="62.5" height="62.5" as="geometry" />
        </mxCell>
        <mxCell id="yVCoZ4X0CeeAgaEIHaB0-73" style="edgeStyle=orthogonalEdgeStyle;rounded=0;orthogonalLoop=1;jettySize=auto;html=1;entryX=0.75;entryY=0;entryDx=0;entryDy=0;" edge="1" parent="1" source="yVCoZ4X0CeeAgaEIHaB0-54" target="yVCoZ4X0CeeAgaEIHaB0-72">
          <mxGeometry relative="1" as="geometry" />
        </mxCell>
        <mxCell id="yVCoZ4X0CeeAgaEIHaB0-54" value="عنوان&amp;nbsp;&lt;div&gt;وظیفه&lt;/div&gt;" style="ellipse;whiteSpace=wrap;html=1;aspect=fixed;" vertex="1" parent="1">
          <mxGeometry x="780.5" y="-937.5" width="65" height="65" as="geometry" />
        </mxCell>
        <mxCell id="yVCoZ4X0CeeAgaEIHaB0-103" value="" style="edgeStyle=orthogonalEdgeStyle;rounded=0;orthogonalLoop=1;jettySize=auto;html=1;" edge="1" parent="1" source="yVCoZ4X0CeeAgaEIHaB0-57" target="yVCoZ4X0CeeAgaEIHaB0-102">
          <mxGeometry relative="1" as="geometry" />
        </mxCell>
        <mxCell id="yVCoZ4X0CeeAgaEIHaB0-57" value="&lt;span style=&quot;font-size: 18px;&quot;&gt;باگ&lt;/span&gt;" style="rounded=1;whiteSpace=wrap;html=1;" vertex="1" parent="1">
          <mxGeometry x="392" y="-857.5" width="120" height="60" as="geometry" />
        </mxCell>
        <mxCell id="yVCoZ4X0CeeAgaEIHaB0-89" style="edgeStyle=orthogonalEdgeStyle;rounded=0;orthogonalLoop=1;jettySize=auto;html=1;entryX=0.75;entryY=0;entryDx=0;entryDy=0;" edge="1" parent="1" source="yVCoZ4X0CeeAgaEIHaB0-58" target="yVCoZ4X0CeeAgaEIHaB0-57">
          <mxGeometry relative="1" as="geometry" />
        </mxCell>
        <mxCell id="yVCoZ4X0CeeAgaEIHaB0-58" value="عنوان&amp;nbsp;&lt;div&gt;باگ&lt;/div&gt;" style="ellipse;whiteSpace=wrap;html=1;aspect=fixed;" vertex="1" parent="1">
          <mxGeometry x="520" y="-980" width="65" height="65" as="geometry" />
        </mxCell>
        <mxCell id="yVCoZ4X0CeeAgaEIHaB0-90" style="edgeStyle=orthogonalEdgeStyle;rounded=0;orthogonalLoop=1;jettySize=auto;html=1;entryX=0.25;entryY=0;entryDx=0;entryDy=0;" edge="1" parent="1" source="yVCoZ4X0CeeAgaEIHaB0-60" target="yVCoZ4X0CeeAgaEIHaB0-57">
          <mxGeometry relative="1" as="geometry" />
        </mxCell>
        <mxCell id="yVCoZ4X0CeeAgaEIHaB0-60" value="وضعیت&lt;div&gt;حل&lt;/div&gt;" style="ellipse;whiteSpace=wrap;html=1;aspect=fixed;" vertex="1" parent="1">
          <mxGeometry x="405" y="-980" width="65" height="65" as="geometry" />
        </mxCell>
        <mxCell id="yVCoZ4X0CeeAgaEIHaB0-65" value="مدیریت&amp;nbsp;&lt;div&gt;کردن&lt;/div&gt;" style="rhombus;whiteSpace=wrap;html=1;rounded=1;" vertex="1" parent="1">
          <mxGeometry x="180" y="-490" width="80" height="82.5" as="geometry" />
        </mxCell>
        <mxCell id="yVCoZ4X0CeeAgaEIHaB0-69" value="&lt;font style=&quot;font-size: 18px;&quot;&gt;1&lt;/font&gt;" style="text;html=1;align=center;verticalAlign=middle;whiteSpace=wrap;rounded=0;" vertex="1" parent="1">
          <mxGeometry x="180" y="-595" width="50" height="40" as="geometry" />
        </mxCell>
        <mxCell id="yVCoZ4X0CeeAgaEIHaB0-70" value="&lt;font style=&quot;font-size: 18px;&quot;&gt;1&lt;/font&gt;" style="text;html=1;align=center;verticalAlign=middle;whiteSpace=wrap;rounded=0;" vertex="1" parent="1">
          <mxGeometry x="329.5" y="-470" width="50" height="40" as="geometry" />
        </mxCell>
        <mxCell id="yVCoZ4X0CeeAgaEIHaB0-104" style="edgeStyle=orthogonalEdgeStyle;rounded=0;orthogonalLoop=1;jettySize=auto;html=1;entryX=1;entryY=0.5;entryDx=0;entryDy=0;" edge="1" parent="1" source="yVCoZ4X0CeeAgaEIHaB0-72" target="yVCoZ4X0CeeAgaEIHaB0-102">
          <mxGeometry relative="1" as="geometry" />
        </mxCell>
        <mxCell id="yVCoZ4X0CeeAgaEIHaB0-72" value="&lt;font style=&quot;font-size: 18px;&quot;&gt;وضایف&lt;/font&gt;" style="shape=ext;double=1;rounded=0;whiteSpace=wrap;html=1;" vertex="1" parent="1">
          <mxGeometry x="655" y="-865" width="102.5" height="60" as="geometry" />
        </mxCell>
        <mxCell id="yVCoZ4X0CeeAgaEIHaB0-77" value="وظیفه&amp;nbsp;&lt;div&gt;چه کسی است&lt;/div&gt;" style="rhombus;whiteSpace=wrap;html=1;rounded=0;" vertex="1" parent="1">
          <mxGeometry x="667.1899999999999" y="-720" width="68.12" height="80" as="geometry" />
        </mxCell>
        <mxCell id="yVCoZ4X0CeeAgaEIHaB0-80" value="&lt;span style=&quot;font-size: 18px;&quot;&gt;n&lt;/span&gt;" style="text;html=1;align=center;verticalAlign=middle;whiteSpace=wrap;rounded=0;" vertex="1" parent="1">
          <mxGeometry x="695" y="-815" width="50" height="40" as="geometry" />
        </mxCell>
        <mxCell id="yVCoZ4X0CeeAgaEIHaB0-82" value="&lt;font style=&quot;font-size: 18px;&quot;&gt;1&lt;/font&gt;" style="text;html=1;align=center;verticalAlign=middle;whiteSpace=wrap;rounded=0;" vertex="1" parent="1">
          <mxGeometry x="667.19" y="-615" width="50" height="40" as="geometry" />
        </mxCell>
        <mxCell id="yVCoZ4X0CeeAgaEIHaB0-84" value="" style="shape=link;html=1;rounded=0;entryX=0.5;entryY=0;entryDx=0;entryDy=0;exitX=0.5;exitY=1;exitDx=0;exitDy=0;" edge="1" parent="1" source="yVCoZ4X0CeeAgaEIHaB0-72" target="yVCoZ4X0CeeAgaEIHaB0-77">
          <mxGeometry width="100" relative="1" as="geometry">
            <mxPoint x="370" y="-640" as="sourcePoint" />
            <mxPoint x="470" y="-640" as="targetPoint" />
          </mxGeometry>
        </mxCell>
        <mxCell id="yVCoZ4X0CeeAgaEIHaB0-86" value="مدیریت" style="rhombus;whiteSpace=wrap;html=1;rounded=1;" vertex="1" parent="1">
          <mxGeometry x="117.5" y="-730" width="65" height="70" as="geometry" />
        </mxCell>
        <mxCell id="yVCoZ4X0CeeAgaEIHaB0-94" value="عضویت&amp;nbsp;&lt;div&gt;در تیم&lt;/div&gt;" style="rhombus;whiteSpace=wrap;html=1;rounded=1;" vertex="1" parent="1">
          <mxGeometry x="412" y="-600" width="80" height="80" as="geometry" />
        </mxCell>
        <mxCell id="yVCoZ4X0CeeAgaEIHaB0-97" value="&lt;font style=&quot;font-size: 18px;&quot;&gt;1&lt;/font&gt;" style="text;html=1;align=center;verticalAlign=middle;whiteSpace=wrap;rounded=0;" vertex="1" parent="1">
          <mxGeometry x="412.5" y="-505" width="50" height="40" as="geometry" />
        </mxCell>
        <mxCell id="yVCoZ4X0CeeAgaEIHaB0-98" value="&lt;font style=&quot;font-size: 18px;&quot;&gt;n&lt;/font&gt;" style="text;html=1;align=center;verticalAlign=middle;whiteSpace=wrap;rounded=0;" vertex="1" parent="1">
          <mxGeometry x="580" y="-580" width="50" height="40" as="geometry" />
        </mxCell>
        <mxCell id="yVCoZ4X0CeeAgaEIHaB0-99" value="&lt;font style=&quot;font-size: 18px;&quot;&gt;1&lt;/font&gt;" style="text;html=1;align=center;verticalAlign=middle;whiteSpace=wrap;rounded=0;" vertex="1" parent="1">
          <mxGeometry x="117.5" y="-780" width="50" height="40" as="geometry" />
        </mxCell>
        <mxCell id="yVCoZ4X0CeeAgaEIHaB0-100" value="&lt;font style=&quot;font-size: 18px;&quot;&gt;1&lt;/font&gt;" style="text;html=1;align=center;verticalAlign=middle;whiteSpace=wrap;rounded=0;" vertex="1" parent="1">
          <mxGeometry x="90" y="-635" width="50" height="40" as="geometry" />
        </mxCell>
        <mxCell id="yVCoZ4X0CeeAgaEIHaB0-102" value="باگ&amp;nbsp;&lt;div&gt;ایجاد&lt;/div&gt;" style="rhombus;whiteSpace=wrap;html=1;rounded=1;" vertex="1" parent="1">
          <mxGeometry x="550" y="-856.25" width="57" height="57.5" as="geometry" />
        </mxCell>
        <mxCell id="yVCoZ4X0CeeAgaEIHaB0-105" value="&lt;font style=&quot;font-size: 18px;&quot;&gt;1&lt;/font&gt;" style="text;html=1;align=center;verticalAlign=middle;whiteSpace=wrap;rounded=0;" vertex="1" parent="1">
          <mxGeometry x="500.00000000000006" y="-857.5" width="50" height="40" as="geometry" />
        </mxCell>
        <mxCell id="yVCoZ4X0CeeAgaEIHaB0-106" value="&lt;font style=&quot;font-size: 18px;&quot;&gt;1&lt;/font&gt;" style="text;html=1;align=center;verticalAlign=middle;whiteSpace=wrap;rounded=0;" vertex="1" parent="1">
          <mxGeometry x="617.19" y="-865" width="50" height="40" as="geometry" />
        </mxCell>
      </root>
    </mxGraphModel>
  </diagram>
</mxfile>
